<?xml version="1.0" standalone="no"?><!DOCTYPE svg PUBLIC "-//W3C//DTD SVG 1.1//EN" "http://www.w3.org/Graphics/SVG/1.1/DTD/svg11.dtd"><svg t="1722912383296" class="icon" viewBox="0 0 1024 1024" version="1.1" xmlns="http://www.w3.org/2000/svg" p-id="3963" xmlns:xlink="http://www.w3.org/1999/xlink" width="128" height="128"><path d="M940.00542151 3.04627103H117.17618347c-37.90408059 0-68.53803425 30.63395365-68.53803425 68.53803425v617.02872179c0 37.90408059 30.63395365 68.60017209 68.53803425 68.60017208h342.81444693v479.95265328h137.13820635v-479.95265328h342.81444693c37.90408059 0 68.60017209-30.63395365 68.60017209-68.53803425v-617.02872177c0-37.90408059-30.6960915-68.60017209-68.60017209-68.6001721zM254.31438981 620.07499281H185.77635555v-205.67624059h68.53803426v205.67624059z m205.67624059 0H391.45259615v-205.67624059h68.53803425v205.67624059z m205.67624059 0H597.12883675v-205.67624059h68.60017208v205.67624059z m205.73837843 0h-68.53803425v-205.67624059h68.53803425v205.67624059z m68.60017209-342.81444693H117.17618347v-205.6762406h822.82923804v205.6762406zM391.45259615 140.12233953H185.77635555v68.6001721h205.6762406V140.12233953z" p-id="3964"></path></svg>