<?xml version="1.0" standalone="no"?><!DOCTYPE svg PUBLIC "-//W3C//DTD SVG 1.1//EN" "http://www.w3.org/Graphics/SVG/1.1/DTD/svg11.dtd"><svg t="1722912399252" class="icon" viewBox="0 0 1085 1024" version="1.1" xmlns="http://www.w3.org/2000/svg" p-id="4438" xmlns:xlink="http://www.w3.org/1999/xlink" width="135.625" height="128"><path d="M591.901988 622.374008a103.873998 103.873998 0 0 1 16.199-10.27 112.098998 112.098998 0 0 1 18.308-7.442l0.198-0.091c5.762-1.743 11.966-3.21 18.567999-4.432 6.755-1.269 13.142-2.11 19.163-2.568v0.062a463.395991 463.395991 0 0 1 37.288999-1.636v0.092h34.2v-0.092c5.105 0 11.92 0.107 20.890999 0.352 7.84 0.23 14.854 0.52 20.906 0.886 6.8 0.382 13.631 1.116 20.446999 2.155 7.335 1.13 14.32 2.522 20.936 4.157l0.306 0.091c6.862 1.788 13.616 4.127 20.142 7.045 6.265 2.812 12.332 6.16 18.062999 10.087l0.015-0.016c6.342 4.28 11.981 9.414 16.902 15.359 4.768 5.761 8.803 12.149 12.073 19.162999l15.129999 32.413H550.149989l15.68-32.596c3.071-6.419 6.77-12.424 11.125-17.986999 4.493-5.746 9.444-10.697 14.884999-14.808l0.06 0.076z m15.954 17.955999c-7.855 5.915-14.09 14.121-18.904 24.146H863.279983c-4.966-10.682-11.92-19.057-20.659999-24.969999a96.153998 96.153998 0 0 0-30.122-13.464 197.045996 197.045996 0 0 0-36.553999-5.593 649.178987 649.178987 0 0 0-40.114999-1.147H701.609986c-12.118 0-23.886 0.505-35.300999 1.483a149.289997 149.289997 0 0 0-31.893999 5.914 83.423998 83.423998 0 0 0-26.56 13.630999z m424.563992 3.943c7.32 1.987 13.938 5.196 19.897999 9.567l0.962 0.657c2.858 2.2 4.967 3.927 6.327 5.15 6.296 5.67 10.667 12.225 13.143 19.668l0.641 2.14 11.63 42.391999v5.226a52.951999 52.951999 0 0 1-4.585 20.691999h0.03a71.726999 71.726999 0 0 1-3.499 6.877l-0.06-0.03c-1.682 2.933-3.088 5.195-4.127 6.616l-0.076-0.06a62.808999 62.808999 0 0 1-14.916 14.517l-0.076-0.122c-3.469 2.384-7.045 4.263-10.727999 5.685a206.719996 206.719996 0 0 1 1.635 30.624999h0.153a961.144981 961.144981 0 0 1-0.963 29.616v0.336c-0.443 6.465-1.253 13.494-2.445 21.089999a277.739995 277.739995 0 0 1-2.796 15.343v86.143998c0 16.75-5.532 30.533999-16.474 41.322999-10.652 10.498-24.115 15.755-40.298999 15.755v-0.152h-62.701999v0.152c-16.474 0-29.967999-5.516-40.542999-16.565-10.315-10.759-15.435-24.268-15.435-40.512999v-14.075H616.139988V966.800001c0 16.626-5.287 30.303999-15.878 41.015999l-0.076-0.076c-10.667 10.758-24.146 16.153-40.420999 16.153v-0.153h-63.297999v0.153c-16.199 0-29.646999-5.257-40.298999-15.756-10.942-10.789-16.458-24.573-16.458-41.321999v-88.009998a663.482987 663.482987 0 0 1-2.354-16.091c-1.024-7.794-1.742-13.937-2.109-18.246999h0.092a301.743994 301.743994 0 0 1-1.161999-15.282 314.609994 314.609994 0 0 1-0.489-14.915h0.153c-0.122-5.945-0.015-11.4 0.306-16.29 0.306-4.478 0.825-9.277 1.558999-14.395999a52.019999 52.019999 0 0 1-10.620999-5.655l-0.03 0.016a59.599999 59.599999 0 0 1-14.32-13.647l-1.834-2.384-0.764-1.223a90.086998 90.086998 0 0 1-4.585-8.542 49.971999 49.971999 0 0 1-4.003-11.018999h-0.031a71.977999 71.977999 0 0 1-0.993-5.914l-1.192-8.435 11.262-41.062999c1.01-6.449 3.393-12.485 7.183-18.262l-0.046-0.03a49.513999 49.513999 0 0 1 13.082-13.296c4.126-2.934 8.038-4.982 11.811999-6.48a67.553999 67.553999 0 0 1 7.917-2.582 77.677998 77.677998 0 0 1 14.074-2.537v0.138l1.238-0.153c2.674-0.336 4.264-0.55 5.761-0.55v0.152h29.203999l2.018-2.612999c1.864-2.414-0.49 0.612 2.399-3.178l4.462-5.869c3.118-4.095 6.113-8.023 8.375-10.758 1.467-1.788 2.812-3.408 3.683-4.539 1.833-2.292 2.322-2.842 2.598-3.224l1.62-2.293c0.152-0.214-0.031-0.03 0.488-0.81 0.245-0.382 0.153-0.153 0.092 0.061h0.015l2.72-5.104 3.454-3.774c1.712-1.865 3.668-4.172 5.93-6.908 2.537-3.102 4.401-5.47 5.653999-7.181999h-0.015a145.942997 145.942997 0 0 1 18.308-20.662l0.489-0.657a100.096998 100.096998 0 0 1 13.6-10.101 88.359998 88.359998 0 0 1 16.199999-8.054 108.134998 108.134998 0 0 1 18.43-5.196c6.112-1.192 12.775-2.063 20.019-2.582h0.153a1129.857978 1129.857978 0 0 1 35.942999-1.803999l5.257-0.198c8.955-0.336 17.269-0.627 27.049999-0.825a5554.848892 5554.848892 0 0 0 26.468-0.612l0.962-0.153c13.647 0 10.698 0.046 11.447 0.031 8.252-0.122 0.901-0.245 8.189999-0.245v0.153h9.017v-0.153c0.58 0 6.525 0.092 20.325 0.337 8.023 0.153 16.168 0.351 24.236999 0.642h0.153a1250.432976 1250.432976 0 0 1 54.097999 3.039999v0.016c7.534 0.535 14.61 1.513 21.105 2.904a95.664998 95.664998 0 0 1 20.172 6.54c4.08 1.773 7.886 3.668 11.369999 5.67 3.82 2.2 7.58 4.676 11.293 7.442l2.338 1.758 2.018 2.002c1.726 1.726 2.643 2.75 3.912 4.126l3.331 3.667c2.904 3.179 6.19 6.755 9.322 10.575l-0.046 0.046c2.996 3.423 3.836 4.432 4.646 5.379999 0.352 0.427-0.672-0.81 3.576 4.095v0.153a194.815996 194.815996 0 0 1 5.088999 6.143l1.116 1.376 1.772 2.14 1.65 2.17 0.031-0.031c2.4 3.087 1.3 1.772 5.12 6.815 3.133 4.127 5.18 6.862 5.746 7.58l1.13 1.483c2.996 4.217 4.845 6.678 6.71 9.169 2.674 3.56 1.635 2.109 3.621 4.783a234.963995 234.963995 0 0 1 4.89 6.876999h30.457999c6.83 0 13.295 0.856 19.408 2.506zM476.430991 841.044004c0.795 9.735 2.4 21.502 4.6 35.102999v90.667998c0 10.132 5.211 15.205 15.434999 15.205h63.282999c10.01 0 15.022-5.073 15.022-15.22v-56.191999h333.696993v55.778999c0 10.147 4.814 15.22 14.625 15.22h62.701999c10.208 0 15.42-5.073 15.419999-15.205v-90.667998a203.371996 203.371996 0 0 0 5.41-34.689999c0.58-9.933 0.794-19.072 0.794-27.187a182.221996 182.221996 0 0 0-1.605-27.583999 126.717998 126.717998 0 0 0-4.003-19.255 346.442993 346.442993 0 0 0-4.202999-12.99 47.404999 47.404999 0 0 1-2.216-9.138h32.855999c2.4 0 4.616-0.611 6.617-2.033 1.804-1.222 3.607-2.827 4.799-4.659999a27.319999 27.319999 0 0 0 3.01-5.273 9.276 9.276 0 0 0 0.994-3.851l-10.01-36.509c-0.198-0.611-2.002-2.23-5.41-4.874999-3.606-2.628-8.603-4.05-15.22-4.05h-53.884999a83.409998 83.409998 0 0 0-5.41-10.345c-2.598-4.065-5.394-8.512-9.015999-13.387-3.606-4.86-7.213-9.536-10.804-14.595-3.806-4.89-7.412-9.75-11.019-14.409999l-2.002-2.629c-1.405-1.635-3.407-4.279-6.204-7.519-2.812-3.24-5.609-6.678-8.818-10.346-3.01-3.652-6.02-6.877-8.619-9.719-2.598-2.842-4.401-4.89-5.195999-5.7a72.359999 72.359999 0 0 0-14.823-8.511999c-6.419-3.041-15.832-5.074-27.66-5.884a1244.732976 1244.732976 0 0 0-95.726998-3.85h-9.016c-4.998 0-11.615 0.213-19.637999 0.213-8.007 0.199-16.81 0.397-26.636 0.596-9.811 0.199-20.234 0.611-31.633999 1.024a999.78798 999.78798 0 0 0-34.659999 1.819c-11.415 0.81-20.431 2.628-27.049 5.272a51.820999 51.820999 0 0 0-16.809999 10.345999c-4.814 4.462-9.016 9.322-12.821 14.61-4.615 6.265-9.43 12.164-14.625 17.849-1.406 2.643-3.21 5.272-5.013 7.503-2.399 3.439-5.196 6.892-8.206 10.544999-3.01 3.652-5.609 7.09-8.405 10.758-2.613 3.439-4.615 6.082-6.020999 7.901a91.492998 91.492998 0 0 1-5.807 9.536 50.185999 50.185999 0 0 0-5.013 9.123h-52.875999c-0.198 0-1.39 0.199-3.606 0.413a37.439999 37.439999 0 0 0-6.816 1.222 20.325 20.325 0 0 0-6.8 2.828c-2.002 1.42-3.01 2.842-3.01 4.659999l-10.01 36.525a11.996 11.996 0 0 0 0.993 3.85c0.81 1.834 1.818 3.668 2.812 5.273 1.406 1.834 3.01 3.454 4.798 4.659999a11.08 11.08 0 0 0 6.617 2.033h32.855999c-0.412 3.057-1.207 6.281-2.398999 9.14a130.333997 130.333997 0 0 0-4.218 13.37c-1.406 5.273-2.796 11.768-4.003 19.47a152.513997 152.513997 0 0 0-1.804 26.987999c0 8.115 0.398 17.04 1.406 26.774zM524.82999 609.110008l0.03 0.016c-0.228 0.428-0.137 0.229-0.03-0.016zM508.88999 809.090004l12.837-44.989999h102.939998v61.127999H504.30499l4.6-16.138z m439.112991-35.544999l14.762 51.682999H842.389984V764.100005h102.923998l2.704999 9.445zM345.158993 1008.61H80.856998a80.994998 80.994998 0 0 1-57.123998-23.518999A79.511998 79.511998 0 0 1 0 928.502002V80.109018c0-22.036 9.093-42.085999 23.733-56.573998A80.994998 80.994998 0 0 1 80.841998 0.00002h694.076987a80.994998 80.994998 0 0 1 57.123999 23.519 79.511998 79.511998 0 0 1 23.747999 56.589998v388.222993H803.359984V80.108018c0-7.717-3.21-14.747-8.375-19.865999a28.454999 28.454999 0 0 0-20.034999-8.283H80.856998c-7.794 0-14.885 3.163-20.049999 8.283a27.934999 27.934999 0 0 0-8.375 19.865999v848.394984c0 7.717 3.21 14.747 8.375 19.865999 5.165 5.12 12.256 8.283 20.049999 8.283h264.301995v51.958999z m-177.056996-564.669989h323.289993v52.539999h-323.289993v-52.523999z m0 130.095998h135.565997v52.523999H168.101997v-52.523999z m0-259.961995h502.68499V366.600013H168.101997v-52.524999z m1.62-130.690998h502.68499v52.523999H169.721997v-52.523999z" p-id="4439"></path></svg>