<?xml version="1.0" standalone="no"?><!DOCTYPE svg PUBLIC "-//W3C//DTD SVG 1.1//EN" "http://www.w3.org/Graphics/SVG/1.1/DTD/svg11.dtd"><svg t="1722912387665" class="icon" viewBox="0 0 1024 1024" version="1.1" xmlns="http://www.w3.org/2000/svg" p-id="4120" xmlns:xlink="http://www.w3.org/1999/xlink" width="128" height="128"><path d="M0 475.008h105.536l18.464 124H0v-124z m976.992 0v124h-124l32.768-124h91.232z m-187.904-221.056l-69.504-68.96-41.728 41.728 111.232 110.4 0.096-0.096 0.16 0.16 166.912-166.912-41.728-41.728-125.44 125.44z m30.912 181.056a199.008 199.008 0 1 1 0-398.016 199.008 199.008 0 1 1 0 398.016z m-88 416.992H243.008v123.008H88v-123.008h-32v-295.872L163.616 192h409.12a247.68 247.68 0 0 0-3.744 43.392v0.096c0 9.376 0.512 18.624 1.504 27.712H235.424l-66.112 223.68c105.728 11.552 211.456 17.312 317.184 17.312 104.864 0 263.744-10.112 314.624-17.056s69.76-10.464 92.64-17.28l23.232 86.24v295.872h-30.016v123.008h-155.008v-123.008zM120 618.016v124h232.992v-83.392L120 618.016z m728.992 0l-232.992 40.608v83.392h232.992v-124z" p-id="4121"></path></svg>