<?xml version="1.0" standalone="no"?><!DOCTYPE svg PUBLIC "-//W3C//DTD SVG 1.1//EN" "http://www.w3.org/Graphics/SVG/1.1/DTD/svg11.dtd"><svg t="1722912342203" class="icon" viewBox="0 0 1024 1024" version="1.1" xmlns="http://www.w3.org/2000/svg" p-id="2686" xmlns:xlink="http://www.w3.org/1999/xlink" width="128" height="128"><path d="M260.608 939.008c-27.136 0-53.76-10.752-73.216-29.696l-0.512-0.512-97.28-97.28c-19.456-19.456-30.208-45.056-30.208-72.704 0-27.136 10.752-53.76 30.208-72.704L690.688 65.024c19.456-19.456 45.056-30.208 72.704-30.208 27.136 0 53.76 10.752 72.704 30.208l48.64 48.64 49.152 48.64c19.456 19.456 30.208 45.568 30.208 73.216 0 27.136-10.752 53.76-30.208 72.704L333.312 908.8c-18.944 19.456-45.056 30.208-72.704 30.208zM230.4 865.28c8.192 7.68 18.944 12.288 30.208 12.288 8.192 0 19.456-2.048 29.696-11.776L890.88 264.704c7.68-7.68 11.776-18.432 11.776-29.696 0-8.192-2.048-19.456-11.776-29.696l-49.152-48.64-48.64-48.64c-7.68-7.68-18.432-11.776-29.696-11.776-8.192 0-19.456 2.048-29.696 11.776L133.12 709.12c-7.68 7.68-11.776 18.432-11.776 29.696 0 8.192 2.048 19.456 11.776 29.696L230.4 865.28z" p-id="2687"></path><path d="M296.96 507.904L91.648 302.592c-10.24-10.24-18.432-22.016-24.064-34.816s-9.216-26.112-9.728-39.424c-0.512-14.336 1.024-27.648 5.12-39.424 4.608-13.312 12.288-25.088 22.016-34.816L179.2 59.904c9.728-9.728 22.016-17.408 34.816-22.016 11.776-4.096 25.6-6.144 39.424-5.12 13.312 0.512 26.624 4.096 39.424 9.728C305.664 48.128 317.44 56.32 327.68 66.56l205.312 205.312-43.52 43.52-204.8-205.824c-5.12-5.12-10.752-9.216-16.384-11.776-6.144-2.56-12.288-4.096-17.92-4.608-6.144-0.512-11.264 0.512-15.872 2.048-4.608 1.536-8.704 4.096-12.288 7.68L128.512 197.12c-3.584 3.584-6.144 7.68-7.68 12.288-1.536 4.608-2.048 9.728-2.048 15.872 0.512 5.632 2.048 11.776 4.608 17.92 2.56 5.632 6.656 11.264 11.776 16.384l205.312 205.312-43.52 43.008zM827.392 991.744h-6.144c-13.312-0.512-26.624-4.096-39.424-9.728-12.8-5.632-24.576-13.824-34.816-24.064l-235.52-235.008 43.52-43.52 235.52 235.008c5.12 5.12 10.752 9.216 16.384 11.776 6.144 2.56 12.288 4.096 17.92 4.608 5.632 0.512 11.264-0.512 15.872-2.048 4.608-1.536 8.704-4.096 12.288-7.68l94.208-94.208c3.584-3.584 6.144-7.68 7.68-12.288 1.536-4.608 2.048-9.728 2.048-15.872-0.512-5.632-2.048-11.776-4.608-17.92-2.56-5.632-6.656-11.264-11.776-16.384l-235.008-235.008 43.52-43.52 235.008 235.008c10.24 10.24 18.432 22.016 24.064 34.816s9.216 26.112 9.728 39.424c0.512 14.336-1.024 27.648-5.12 39.424-4.608 13.312-12.288 25.088-22.016 34.816l-94.208 94.208c-9.728 9.728-22.016 17.408-34.816 22.016-11.264 4.608-22.528 6.144-34.304 6.144zM37.376 991.744c-8.192 0-15.872-3.072-21.504-9.216-7.68-7.68-10.752-18.432-8.192-28.672l58.368-251.392c3.584-16.384 20.48-26.624 36.864-23.04 16.384 4.096 26.624 20.48 23.04 36.864l-47.104 203.264 202.752-47.616c16.384-4.096 33.28 6.144 36.864 23.04 4.096 16.384-6.144 33.28-23.04 36.864l-250.88 58.88c-2.56 0.512-5.12 1.024-7.168 1.024zM827.392 402.432c-7.68 0-15.872-3.072-21.504-9.216l-195.072-195.072c-11.776-11.776-11.776-31.232 0-43.52 11.776-11.776 31.232-11.776 43.52 0l195.072 195.072c11.776 11.776 11.776 31.232 0 43.52-6.144 6.144-14.336 9.216-22.016 9.216z" p-id="2688"></path><path d="M219.136 402.432c-7.68 0-15.872-3.072-21.504-9.216-11.776-11.776-11.776-31.232 0-43.52L286.208 261.12c11.776-11.776 31.232-11.776 43.52 0 11.776 11.776 11.776 31.232 0 43.52L240.64 393.216c-5.632 6.144-13.824 9.216-21.504 9.216zM674.304 857.6c-7.68 0-15.872-3.072-21.504-9.216-11.776-11.776-11.776-31.232 0-43.52l89.088-89.088c11.776-11.776 31.232-11.776 43.52 0 11.776 11.776 11.776 31.232 0 43.52L696.32 848.384c-6.144 6.144-14.336 9.216-22.016 9.216z" p-id="2689"></path></svg>