<?xml version="1.0" standalone="no"?><!DOCTYPE svg PUBLIC "-//W3C//DTD SVG 1.1//EN" "http://www.w3.org/Graphics/SVG/1.1/DTD/svg11.dtd"><svg t="1722912338404" class="icon" viewBox="0 0 1024 1024" version="1.1" xmlns="http://www.w3.org/2000/svg" p-id="2529" xmlns:xlink="http://www.w3.org/1999/xlink" width="128" height="128"><path d="M664.44367775 686.30358682c-5.26575741 0-11.32137849-0.78986364-16.58713592-1.84301507v211.15687315c3.42274233 0.78986364 7.10877253 2.63287869 11.32137853 2.63287872 21.85289338 0 40.28304438-20.27316612 40.28304433-45.5488018v-177.98260136c-4.47589381 2.63287869-7.89863616 5.26575741-13.16439358 7.10877255-6.84548464 2.63287869-13.95425718 4.47589381-21.85289336 4.47589381z m216.68591847-406.7797619c-9.74165126-30.80468099-37.65016565-50.81455925-70.03457391-50.81455924h-114.00364843c-21.06302975 0-39.49318077 9.74165126-53.44743799 23.69590847-2.63287869 3.42274233-5.26575741 7.10877253-7.89863617 9.74165129-1.84301511 2.63287869-2.63287869 6.05562109-4.47589382 8.68849972 31.5945446 11.32137849 56.8701803 36.86030206 68.45484668 70.03457392l74.51046768 229.58702419c3.42274233 10.53151486 4.47589381 21.06302975 3.42274236 31.59454461-0.78986364 7.89863616-2.63287869 15.79727229-5.26575743 23.69590845v211.15687317c0 24.48577205 20.27316612 44.75893818 43.7057867 44.75893819 24.48577205 0 43.70578672-20.27316612 43.70578676-44.75893819V496.73631918l12.37452994 38.44002926c6.05562109 18.43015101 22.90604486 30.80468099 41.07290798 30.804681 4.47589381 0 8.68849975-0.78986364 13.16439361-1.84301512 17.6402874-5.26575741 28.96166588-21.06302975 29.75152951-37.65016563 0.78986364-6.05562109 0-11.32137849-1.84301512-17.64028741l-73.19402835-229.32373636z m-169.29410154-91.36089148c9.74165126 3.42274233 19.22001466 5.26575741 30.804681 5.26575745 10.53151486 0 21.06302975-1.84301511 30.804681-5.26575745 36.86030206-13.1643936 63.97895281-47.3918169 63.97895282-89.51787642 0-52.65757436-42.12605949-94.78363386-94.78363382-94.78363382s-94.78363386 42.12605949-94.78363385 94.78363382c0 41.33619588 27.11865076 76.35348281 63.97895285 89.51787642z m-71.08772539 159.55245026c-9.74165126-30.80468099-37.65016565-50.81455925-70.03457388-50.81455924h-114.79351211c-21.06302975 0-39.49318077 9.74165126-53.44743796 23.69590846-2.63287869 3.42274233-5.26575741 7.10877253-7.89863615 9.74165125-1.84301511 2.63287869-2.63287869 6.05562109-4.47589381 8.68849976 31.5945446 11.32137849 56.8701803 36.86030206 68.45484667 70.03457393L533.06302975 638.64848202c3.42274233 10.53151486 4.47589381 21.06302975 3.4227423 31.59454463-0.78986364 7.89863616-2.63287869 15.79727229-5.26575739 23.69590848v211.15687317c0 24.48577205 20.27316612 44.75893818 43.70578668 44.75893818 24.48577205 0 43.70578672-20.27316612 43.70578671-44.75893818V565.1911658l12.37452999 38.44002927c6.05562109 18.43015101 22.90604486 30.80468099 41.072908 30.80468104 4.47589381 0 8.68849975-0.78986364 13.16439359-1.84301513 17.6402874-5.26575741 28.96166588-21.06302975 29.75152953-37.6501657 0.78986364-6.05562109 0-11.32137849-1.84301515-17.64028736 0.52657573 0.2632879-72.40416473-229.58702417-72.40416472-229.58702422zM458.55256205 754.49514564c-5.26575741 0-11.32137849-0.78986364-16.58713594-1.8430151v211.15687315c3.42274233 0.78986364 7.10877253 2.63287869 11.32137848 2.63287875 21.85289338 0 40.28304438-20.27316612 40.2830444-45.54880186v-177.98260133c-4.47589381 2.63287869-7.89863616 5.26575741-13.16439359 7.10877253-7.10877253 3.68603022-14.74412081 4.47589381-21.85289335 4.47589386z m13.16439357-497.87736558c9.74165126 3.42274233 19.22001466 5.26575741 30.804681 5.26575746 10.53151486 0 21.06302975-1.84301511 30.80468097-5.26575746 36.86030206-13.1643936 63.97895281-47.3918169 63.97895288-89.51787638 0-52.65757436-42.12605949-94.78363386-94.78363385-94.78363384s-94.78363386 42.12605949-94.78363384 94.78363384c0 42.12605949 26.32878719 77.40663429 63.97895284 89.51787638zM398.78621513 433.8105178c-9.74165126-30.80468099-38.44002926-50.81455925-71.08772538-50.81455929h-115.58337569c-32.38440825 0-61.34607414 20.27316612-71.0877254 50.81455929l-75.30033129 229.58702416c-1.84301511 6.05562109-2.63287869 11.32137849-1.84301514 17.64028743 1.84301511 16.58713593 13.1643936 32.38440825 30.80468101 37.65016564 4.47589381 1.84301511 8.68849975 1.84301511 13.95425723 1.84301513 18.43015101 0 36.0704384-11.32137849 42.12605946-30.804681l13.16439362-38.44002928V991.45423019c0 24.48577205 20.27316612 44.75893818 44.75893815 44.75893822s44.75893818-20.27316612 44.75893823-44.75893822V725.53347975h35.01728692v265.65746259c0 24.48577205 20.27316612 44.75893818 44.7589382 44.75893819s44.75893818-20.27316612 44.75893821-44.75893819V651.02301203l13.16439358 38.44002924c6.05562109 18.43015101 23.69590847 30.80468099 42.12605951 30.80468101 4.47589381 0 8.68849975-0.78986364 13.95425718-1.84301507 17.6402874-5.26575741 28.96166588-21.06302975 30.80468104-37.65016572 0.78986364-6.05562109 0-11.32137849-1.84301515-17.64028736L398.78621513 433.8105178z m-168.24095005-91.36089152c9.74165126 3.42274233 19.22001466 5.26575741 30.80468097 5.26575742 10.53151486 0 21.06302975-1.84301511 30.804681-5.26575742 36.86030206-13.1643936 63.97895281-47.3918169 63.97895283-89.51787637 0-52.65757436-42.12605949-94.78363386-94.78363383-94.78363385s-94.78363386 42.12605949-94.78363385 94.78363385c0 42.38934736 27.11865076 77.40663429 63.97895288 89.51787637z" p-id="2530"></path></svg>