<?xml version="1.0" standalone="no"?><!DOCTYPE svg PUBLIC "-//W3C//DTD SVG 1.1//EN" "http://www.w3.org/Graphics/SVG/1.1/DTD/svg11.dtd"><svg t="1722912323139" class="icon" viewBox="0 0 1024 1024" version="1.1" xmlns="http://www.w3.org/2000/svg" p-id="2021" xmlns:xlink="http://www.w3.org/1999/xlink" width="128" height="128"><path d="M70.5 900.6V128.7c0-45 36.5-81.5 81.5-81.5h638c45 0 81.5 36.5 81.5 81.5v242.5c0 11 8.9 19.9 19.9 19.9 11 0 19.9-8.9 19.9-19.9V108.8c0-26.6-10.3-51.8-28.9-71C863.3 18.2 837.6 7.4 810 7.4H132.1c-26.6 0-51.8 10.3-71 28.9-19.6 19.1-30.4 44.8-30.4 72.4v811.6c0 26.6 10.3 51.8 28.9 71 19.1 19.6 44.8 30.4 72.4 30.4h532.9c11 0 19.9-8.9 19.9-19.9 0-11-8.9-19.9-19.9-19.9h-513c-44.9 0.1-81.4-36.3-81.4-81.3z" p-id="2022"></path><path d="M166.8 726.4c0 10.2 8.2 18.4 18.4 18.4h374.4c10.2 0 18.4-8.2 18.4-18.4s-8.2-18.4-18.4-18.4H185.2c-10.2 0-18.4 8.2-18.4 18.4zM616.5 837.1H183.3c-9.1 0-16.5 8.2-16.5 18.4s7.4 18.4 16.5 18.4h433.3c9.1 0 16.5-8.2 16.5-18.4-0.1-10.1-7.5-18.4-16.6-18.4z" p-id="2023"></path><path d="M965.3 521l-55.2-26.2c-15.1-7.2-19.5-25.1-10.4-38.8l18.8-28.3c7-10.6 22.3-14.1 34.3-8.4l44 20.9c12 5.7 19 19.7 15.2 31.9l-10.1 32.4c-4.8 15.7-21.5 23.7-36.6 16.5zM807.3 890.6l-90.1-42.8c-1.7-0.8-2.2-3.4-1.1-5.7l171.6-345.3c1.1-2.2 3.3-3.4 5-2.6l77.8 37c1.7 0.8 2.2 3.2 1.2 5.5L812.4 887.8c-1.1 2.3-3.4 3.6-5.1 2.8zM716.7 979.7l83.1-70.7c5-4.2 3.9-12.1-2-14.9l-80.9-38.4c-5.9-2.8-12.7 1.4-12.8 7.9l-2.2 109.1c-0.2 7.8 8.9 12.1 14.8 7z" p-id="2024"></path><path d="M268.7 595.2c-25.2 0-45.9-20.6-45.9-45.9v-16.8c0-25.2 20.6-45.9 45.9-45.9 25.2 0 45.9 20.6 45.9 45.9v16.8c-0.1 25.2-20.7 45.9-45.9 45.9z" p-id="2025"></path><path d="M268.7 595.8c-25.7 0-46.5-20.9-46.5-46.5v-16.8c0-25.7 20.9-46.5 46.5-46.5 25.7 0 46.5 20.9 46.5 46.5v16.8c0 25.7-20.9 46.5-46.5 46.5z m0-108.5c-24.9 0-45.2 20.3-45.2 45.2v16.8c0 24.9 20.3 45.2 45.2 45.2 24.9 0 45.2-20.3 45.2-45.2v-16.8c0-24.9-20.3-45.2-45.2-45.2z" p-id="2026"></path><path d="M607.6 546.4H311.4c-72.1 0-131.1-59-131.1-131.1s59-131.1 131.1-131.1h296.2c72.1 0 131.1 59 131.1 131.1 0.1 72.1-59 131.1-131.1 131.1z" p-id="2027"></path><path d="M546.1 455.6H375.6c-23.8 0-43.2-19.4-43.2-43.2 0-23.8 19.4-43.2 43.2-43.2h170.5c23.8 0 43.2 19.4 43.2 43.2 0 23.8-19.4 43.2-43.2 43.2z" p-id="2028"></path><path d="M260 413.8m-35.3 0a35.3 35.3 0 1 0 70.6 0 35.3 35.3 0 1 0-70.6 0Z" p-id="2029"></path><path d="M260 449.8c-19.9 0-36-16.2-36-36s16.2-36 36-36 36 16.2 36 36-16.1 36-36 36z m0-70.7c-19.1 0-34.7 15.5-34.7 34.7s15.5 34.7 34.7 34.7 34.7-15.5 34.7-34.7-15.6-34.7-34.7-34.7z" p-id="2030"></path><path d="M659.6 415.2m-35.3 0a35.3 35.3 0 1 0 70.6 0 35.3 35.3 0 1 0-70.6 0Z" p-id="2031"></path><path d="M659.6 451.2c-19.9 0-36-16.2-36-36 0-19.9 16.2-36 36-36 19.9 0 36 16.2 36 36 0 19.9-16.2 36-36 36z m0-70.6c-19.1 0-34.7 15.5-34.7 34.7 0 19.1 15.5 34.7 34.7 34.7 19.1 0 34.7-15.5 34.7-34.7-0.1-19.2-15.6-34.7-34.7-34.7z" p-id="2032"></path><path d="M656.1 319.4H263c-12.9 0-19-16.4-13.9-35.5L280 168.7c3.6-13.3 14.7-23.9 24.8-23.9h309.5c10.1 0 21.3 10.5 24.8 23.9L670 283.8c5.1 19.2-1 35.6-13.9 35.6z" p-id="2033"></path><path d="M656.1 333H263c-8.6 0-16.3-3.8-21.7-10.8-7.7-10-9.7-25.6-5.3-41.8l30.9-115.2c5.2-19.3 21.5-33.9 38-33.9h309.5c16.5 0 32.8 14.6 38 33.9l30.9 115.2c4.3 16.2 2.4 31.8-5.3 41.8-5.5 6.9-13.2 10.8-21.9 10.8zM263 305.8h393.1c1.1-1.1 3.7-7.5 0.8-18.4L626 172.2c-2.3-8.4-9-13.8-11.7-13.8H304.8c-2.7 0-9.4 5.4-11.7 13.8l-30.9 115.2c-2.9 10.9-0.4 17.2 0.8 18.4z m393.2 0zM663.8 596.5c-25.2 0-45.9-20.6-45.9-45.9v-16.8c0-25.2 20.6-45.9 45.9-45.9 25.2 0 45.9 20.6 45.9 45.9v16.8c0 25.3-20.7 45.9-45.9 45.9z" p-id="2034"></path></svg>