<?xml version="1.0" standalone="no"?><!DOCTYPE svg PUBLIC "-//W3C//DTD SVG 1.1//EN" "http://www.w3.org/Graphics/SVG/1.1/DTD/svg11.dtd"><svg t="1722912333146" class="icon" viewBox="0 0 1024 1024" version="1.1" xmlns="http://www.w3.org/2000/svg" p-id="2367" xmlns:xlink="http://www.w3.org/1999/xlink" width="128" height="128"><path d="M492.22997333 307.36384h107.69749334v232.27050667c0 17.91317333 14.19946667 32.44032 31.73034666 32.44032 17.53088 0 31.73034667-14.52714667 31.73034667-32.44032V307.36384h107.58826667a19.60618667 19.60618667 0 0 0 16.87552-10.04885333 20.48 20.48 0 0 0 0.10922666-19.98848l-139.48245333-246.68842667A19.27850667 19.27850667 0 0 0 631.6032 20.48a19.27850667 19.27850667 0 0 0-16.93013333 10.15808L475.40906667 277.32650667a20.31616 20.31616 0 0 0-0.05461334 19.98848 19.44234667 19.44234667 0 0 0 16.93013334 10.04885333z" p-id="2368"></path><path d="M993.19808 624.44885333l-124.02688-73.29109333a19.27850667 19.27850667 0 0 0-19.55157333 0.05461333 20.20693333 20.20693333 0 0 0-9.8304 17.25781334v40.90538666H211.18976c-57.89013333 0.10922667-108.51669333-39.86773333-123.04384-97.10250666a130.90816 130.90816 0 0 1 61.16693333-146.09066667 124.90069333 124.90069333 0 0 1 153.68192 24.02986667c39.86773333 42.92608 46.25749333 107.97056 15.5648 158.16021333a32.87722667 32.87722667 0 0 0 10.59498667 43.90912c14.52714667 9.28426667 33.69642667 5.07904 43.19914667-9.50272a197.97333333 197.97333333 0 0 0-23.37450667-237.18570667 187.32373333 187.32373333 0 0 0-230.46826667-36.15402666c-75.91253333 43.03530667-113.65034667 133.14730667-91.85962666 219.05408 21.84533333 85.90677333 97.75786667 145.8176 184.53845333 145.76298666h628.70869333v40.68693334c0 7.09973333 3.76832 13.65333333 9.8304 17.25781333 6.00746667 3.60448 13.43488 3.60448 19.49696 0.10922667l124.02688-73.29109334a19.87925333 19.87925333 0 0 0 9.93962667-17.31242666 19.87925333 19.87925333 0 0 0-9.93962667-17.25781334z m-361.54026667 122.44309334a32.11264 32.11264 0 0 0-31.67573333 32.44032v191.74741333c0 17.91317333 14.19946667 32.44032 31.67573333 32.44032 17.53088 0 31.73034667-14.52714667 31.73034667-32.44032v-191.6928a32.11264 32.11264 0 0 0-31.67573333-32.49493333z m-261.87093333 0a32.11264 32.11264 0 0 0-31.73034667 32.44032v191.74741333c0 17.91317333 14.19946667 32.44032 31.67573334 32.44032 17.53088 0 31.78496-14.52714667 31.78496-32.44032v-191.6928a32.11264 32.11264 0 0 0-31.73034667-32.49493333z" p-id="2369"></path></svg>