<?xml version="1.0" standalone="no"?><!DOCTYPE svg PUBLIC "-//W3C//DTD SVG 1.1//EN" "http://www.w3.org/Graphics/SVG/1.1/DTD/svg11.dtd"><svg t="1722912318173" class="icon" viewBox="0 0 1024 1024" version="1.1" xmlns="http://www.w3.org/2000/svg" p-id="1859" xmlns:xlink="http://www.w3.org/1999/xlink" width="128" height="128"><path d="M328.71992889 952.98446222h-220.78350222v66.40981333h795.75267555v-66.40981333h-574.96917333z m618.65984-950.12636444h-883.71655111c-36.70016 0-66.40981333 29.70965333-66.40981333 66.40981333v618.65984c0 36.70016 29.70965333 66.40981333 66.40981333 66.40981334h883.71655111c36.70016 0 66.40981333-29.70965333 66.40981333-66.40981334V69.26791111c0-36.70016-29.70965333-66.40981333-66.40981333-66.40981333z m8.73813333 668.75847111c0 12.23338667-9.90321778 22.71914667-22.71914666 22.71914666h-856.33706667c-12.23338667 0-22.71914667-9.90321778-22.71914667-22.71914666V85.57909333c0-12.23338667 9.90321778-22.71914667 22.71914667-22.71914666h856.33706667c12.23338667 0 22.71914667 9.90321778 22.71914666 22.71914666v586.03747556z m-257.48366222 226.02638222v-62.91456h-374.57464888v62.91456h374.57464888z" p-id="1860"></path><path d="M414.93617778 260.92430222l217.28824889 125.24657778c13.98101333 8.15559111 13.98101333 27.96202667 0 36.11761778l-217.28824889 125.24657777c-13.98101333 8.15559111-30.87473778-1.74762667-30.87473778-18.05880888v-250.49315556c-0.58254222-16.31118222 16.89372445-26.2144 30.87473778-18.05880889z" p-id="1861"></path></svg>