<?xml version="1.0" standalone="no"?><!DOCTYPE svg PUBLIC "-//W3C//DTD SVG 1.1//EN" "http://www.w3.org/Graphics/SVG/1.1/DTD/svg11.dtd"><svg t="1722912379203" class="icon" viewBox="0 0 1024 1024" version="1.1" xmlns="http://www.w3.org/2000/svg" p-id="3806" xmlns:xlink="http://www.w3.org/1999/xlink" width="128" height="128"><path d="M710.36623486 251.91338637c46.16692575 0 92.48903444 30.88140579 107.61937146 71.84970293l37.78704679 127.25001383h84.5747043c18.85472766 0 33.98506467 15.05274554 33.98506467 33.75229025 0 18.62195325-15.13033701 33.75229025-33.9074732 33.75229025h-64.63369603l6.98323247 23.66539891h23.6653989c37.47668091 0.07759147 67.81494639 30.26067401 67.89253786 67.50458051v298.64957514h-45.77896838v36.70076619c0 18.62195325-15.28551995 33.75229025-33.98506467 33.75229025a33.82988172 33.82988172 0 0 1-33.98506467-33.75229025v-36.70076619h-732.46349423v36.70076619a34.14024761 34.14024761 0 0 1-67.89253787 0v-36.70076619h-54.31403028V609.76525452c0-37.24390649 30.49344844-67.50458051 67.97012933-67.50458051h12.72500138l6.98323247-23.74299038h-53.69329851a33.82988172 33.82988172 0 0 1-33.90747321-33.75229025c0-18.62195325 15.20792849-33.75229025 33.90747321-33.75229025h73.78948971l37.08872355-125.07745262c15.90625174-43.14085835 62.07317748-74.02226414 108.3176947-74.02226414z m10.31966576 357.85186815h-477.96346658c-0.23277441 3.10365887-0.38795736 6.20731775-1.55182943 9.31097662l-25.52759424 67.19421463a68.28049523 68.28049523 0 0 1-63.46982396 43.68399865h-78.36738658v110.8006218h832.55649292v-110.8006218h-95.12714449a68.12531228 68.12531228 0 0 1-63.54741544-43.76159012l-25.52759423-67.11662316c-1.16387208-3.10365887-1.24146356-6.20731775-1.55182944-9.31097662z m-130.43126417 100.40336458c18.69954472 0 33.9074732 15.05274554 33.9074732 33.75229025 0 18.62195325-15.20792849 33.75229025-33.9074732 33.75229025h-200.18599737a33.82988172 33.82988172 0 0 1-33.90747319-33.75229025c0-18.62195325 15.20792849-33.75229025 33.98506466-33.75229025z m316.18524777-100.48095605h-115.22333569l20.01859973 52.76220086h95.20473596v-52.76220086z m-734.24809808 0H73.88339131v52.76220086h78.2897951l20.01859973-52.76220086z m538.17444872-290.1921047H259.09423461c-19.0099106 0-39.18369329 14.81997112-43.91677307 27.62256397l-42.28735216 142.61312527a32.58841818 32.58841818 0 0 1-2.94847592 10.08689133l-12.56981844 42.36494362h654.63924796l-58.42637829-197.15992995c-4.03475654-10.70762311-24.20853922-25.60518571-43.21844983-25.60518572z m213.37654758-80.53994778a31.03658874 31.03658874 0 0 1-56.33140856 25.99314306c-22.035978-47.9515296-54.8571706-64.86647046-106.53309085-55.089945a31.03658874 31.03658874 0 1 1-11.5611293-60.98689687c79.68644159-15.13033701 140.44056405 16.29420908 174.42562871 90.08369881z m110.02470708-73.32394089a31.03658874 31.03658874 0 0 1-56.33140856 25.99314306c-39.80442505-86.43689964-110.87821327-124.37912937-219.89423122-115.84406746a31.03658874 31.03658874 0 1 1-4.81067124-61.91799453c134.00047188-10.4748487 229.98112255 40.81311419 281.03631102 151.76891893z" p-id="3807"></path></svg>