<?xml version="1.0" standalone="no"?><!DOCTYPE svg PUBLIC "-//W3C//DTD SVG 1.1//EN" "http://www.w3.org/Graphics/SVG/1.1/DTD/svg11.dtd"><svg t="1722912351424" class="icon" viewBox="0 0 1024 1024" version="1.1" xmlns="http://www.w3.org/2000/svg" p-id="3003" xmlns:xlink="http://www.w3.org/1999/xlink" width="128" height="128"><path d="M803.52 903.25333333c-10.77333333 0-20.05333333-8.10666667-21.22666667-19.09333333-1.28-11.73333333 7.25333333-22.18666667 18.98666667-23.46666667l45.22666667-4.8c5.97333333-0.64 11.73333333-2.88 16.10666666-6.29333333 81.70666667-63.78666667 94.61333333-159.78666667 91.09333334-229.01333333-1.70666667-34.24-6.93333333-69.33333333-11.94666667-103.25333334-1.06666667-2.02666667-1.70666667-4.26666667-2.02666667-6.72-8.42666667-63.89333333-16-131.62666667-8.42666666-195.73333333 7.04-59.30666667 26.24-107.84 58.45333333-147.30666667l-37.97333333 4.05333334c-11.73333333 1.28-22.18666667-7.25333333-23.46666667-18.98666667-1.28-11.73333333 7.25333333-22.18666667 18.98666667-23.46666667l76.48-8.21333333c12.90666667-1.38666667 24.96 5.44 30.08 16.85333333 4.90666667 10.98666667 2.02666667 23.89333333-7.14666667 32-88.42666667 78.50666667-82.02666667 200-65.38666667 328.64 0.85333333 1.81333333 1.49333333 3.84 1.81333334 5.97333334l0.53333333 3.84c5.33333333 35.73333333 10.88 72.74666667 12.8 109.97333333 2.66666667 52.90666667-4.05333333 101.54666667-19.94666667 144.53333333-17.92 48.53333333-47.36 88.96-87.46666666 120.32-10.77333333 8.42666667-23.78666667 13.65333333-37.86666667 15.14666667l-45.22666667 4.8c-0.96 0.10666667-1.70666667 0.21333333-2.45333333 0.21333333z" p-id="3004"></path><path d="M7.46666667 969.06666667c-13.44 0-25.28-8.32-29.44-20.58666667-3.94666667-11.94666667 0.10666667-24.74666667 10.45333333-32.42666667 115.2-86.29333333 119.57333333-233.49333333 112.42666667-390.18666666-0.85333333-2.13333333-1.38666667-4.37333333-1.6-6.72l-0.32-4.58666667c-2.77333333-43.09333333-5.76-87.78666667-4.26666667-132.16 2.02666667-62.82666667 14.72-119.68 37.76-168.85333333 25.92-55.36 64.64-100.16 114.88-133.12 13.01333333-8.53333333 28.37333333-13.22666667 44.48-13.65333334l624.21333333-14.72h0.74666667c13.44 0 25.28 8.32 29.44 20.58666667 3.94666667 11.94666667-0.10666667 24.74666667-10.45333333 32.42666667C820.69333333 191.36 816.21333333 338.45333333 823.46666667 495.14666667c0.85333333 2.13333333 1.38666667 4.37333333 1.6 6.72l0.32 4.69333333c2.77333333 43.09333333 5.76 87.68 4.26666666 132.05333333-2.02666667 62.82666667-14.72 119.68-37.76 168.85333334-26.02666667 55.46666667-64.64 100.26666667-114.98666666 133.22666666-13.01333333 8.53333333-28.37333333 13.22666667-44.48 13.65333334L8.32 968.96c-0.32 0.10666667-0.53333333 0.10666667-0.85333333 0.10666667z m133.97333333-459.84c0.96 2.34666667 1.6 4.8 1.70666667 7.46666666 3.73333333 76.8 5.97333333 158.18666667-9.38666667 233.49333334-14.93333333 73.28-44.8 130.98666667-90.77333333 175.36l588.48-13.86666667c8-0.21333333 15.78666667-2.56 22.08-6.61333333 105.38666667-69.01333333 130.77333333-183.68 133.44-267.73333334 1.28-41.49333333-1.38666667-84.16-4.05333334-125.54666666-0.96-2.34666667-1.6-4.8-1.70666666-7.46666667-3.73333333-76.8-5.97333333-158.18666667 9.38666666-233.49333333 14.93333333-73.28 44.8-130.98666667 90.77333334-175.36l-588.48 13.86666666c-8 0.21333333-15.78666667 2.56-22.08 6.61333334-105.38666667 69.01333333-130.77333333 183.68-133.44 267.73333333-1.38666667 41.6 1.38666667 84.26666667 4.05333333 125.54666667z" p-id="3005"></path><path d="M271.25333333 354.56v-14.18666667c4.16-3.62666667 8.32-7.25333333 12.58666667-10.66666666 4.26666667-3.41333333 8.96-7.14666667 14.18666667-11.2s10.66666667-7.89333333 16.21333333-11.52c5.54666667-3.62666667 11.94666667-7.46666667 19.09333333-11.41333334 6.29333333 9.17333333 9.49333333 18.02666667 9.49333334 26.34666667 0 4.58666667-0.96 9.70666667-2.88 15.36-1.92 5.65333333-4.58666667 12.05333333-8 19.30666667-3.41333333 7.25333333-7.57333333 16.32-12.69333334 27.30666666-13.54666667 29.97333333-23.68 54.72-30.4 74.24s-10.13333333 32.74666667-10.13333333 39.78666667c0 0.53333333 0.42666667 2.77333333 1.17333333 6.72 0.85333333 3.94666667 1.17333333 6.82666667 1.17333334 8.74666667 0 3.30666667-0.96 5.12-2.88 5.33333333-1.92 0.21333333-4.58666667-0.42666667-8-2.02666667-8.85333333-4.37333333-14.82666667-8.53333333-17.81333334-12.37333333-2.98666667-3.94666667-4.48-8.96-4.48-15.14666667 0-11.2 4.05333333-28.48 12.26666667-51.94666666 4.16-11.84 8.96-23.68 14.50666667-35.41333334 5.54666667-11.73333333 11.62666667-23.57333333 18.34666666-35.62666666 6.72-12.05333333 13.12-23.04 19.09333334-33.17333334-13.01333333 5.33333333-26.66666667 12.58666667-40.85333334 21.54666667zM485.22666667 319.14666667c5.44 2.45333333 9.38666667 6.4 11.84 11.84 2.45333333 5.44 3.73333333 13.54666667 3.73333333 24.21333333 0 16.21333333-3.2 33.70666667-9.70666667 52.48s-15.57333333 36.37333333-27.30666666 52.8c-11.62666667 16.42666667-25.06666667 29.97333333-40.10666667 40.74666667-16.85333333 11.94666667-30.72 17.92-41.6 17.92-8.42666667 0-16.32-2.56-23.68-7.57333334-7.36-5.01333333-13.22666667-12.26666667-17.6-21.65333333s-6.50666667-20.37333333-6.50666667-32.85333333c0-17.49333333 4.8-35.84 14.4-55.14666667s21.76-36.69333333 36.58666667-52.16c14.82666667-15.57333333 30.18666667-27.52 46.18666667-35.84 16-8.42666667 29.76-11.30666667 41.28-8.74666667 7.57333333 1.49333333 11.73333333 6.18666667 12.48 13.97333334z m-39.68 33.81333333l6.08-12.58666667c-6.82666667 3.41333333-12.8 6.82666667-17.92 10.13333334-5.22666667 3.30666667-11.09333333 8-17.81333334 14.18666666-6.72 6.08-13.76 13.76-21.12 22.93333334-11.94666667 15.25333333-21.01333333 30.08-27.09333333 44.37333333-6.08 14.29333333-9.17333333 26.45333333-9.17333333 36.48 0 14.4 4.8 21.54666667 14.50666666 21.54666667 5.54666667 0 13.44-2.98666667 23.68-8.96 10.24-5.97333333 21.22666667-14.18666667 32.64-24.64 10.98666667-10.13333333 20.69333333-21.44 29.01333334-34.02666667 8.32-12.48 14.72-24.85333333 19.2-37.12 4.37333333-12.16 6.61333333-22.61333333 6.61333333-31.25333333 0-5.54666667-1.17333333-9.81333333-3.62666667-12.8-2.45333333-3.09333333-5.44-4.58666667-9.17333333-4.58666667-3.41333333 0-7.14666667 1.28-10.98666667 3.94666667-3.73333333 2.77333333-8.64 6.82666667-14.82666666 12.37333333zM640 319.14666667c5.44 2.45333333 9.38666667 6.4 11.84 11.84 2.45333333 5.44 3.73333333 13.54666667 3.73333333 24.21333333 0 16.21333333-3.2 33.70666667-9.70666666 52.48s-15.57333333 36.37333333-27.30666667 52.8c-11.62666667 16.42666667-25.06666667 29.97333333-40.10666667 40.74666667-16.85333333 11.94666667-30.72 17.92-41.6 17.92-8.42666667 0-16.32-2.56-23.68-7.57333334-7.36-5.01333333-13.22666667-12.26666667-17.6-21.65333333s-6.50666667-20.37333333-6.50666666-32.85333333c0-17.49333333 4.8-35.84 14.4-55.14666667s21.76-36.69333333 36.58666666-52.16c14.82666667-15.57333333 30.18666667-27.52 46.18666667-35.84 16-8.42666667 29.76-11.30666667 41.28-8.74666667 7.57333333 1.49333333 11.62666667 6.18666667 12.48 13.97333334z m-39.68 33.81333333l6.08-12.58666667c-6.82666667 3.41333333-12.8 6.82666667-17.92 10.13333334-5.22666667 3.30666667-11.09333333 8-17.81333333 14.18666666-6.72 6.08-13.76 13.76-21.12 22.93333334-11.94666667 15.25333333-21.01333333 30.08-27.09333334 44.37333333-6.08 14.29333333-9.17333333 26.45333333-9.17333333 36.48 0 14.4 4.8 21.54666667 14.50666667 21.54666667 5.54666667 0 13.44-2.98666667 23.68-8.96 10.24-5.97333333 21.22666667-14.18666667 32.64-24.64 10.98666667-10.13333333 20.69333333-21.44 29.12-34.02666667 8.32-12.48 14.72-24.85333333 19.09333333-37.12 4.37333333-12.16 6.61333333-22.61333333 6.61333333-31.25333333 0-5.54666667-1.17333333-9.81333333-3.62666666-12.8-2.45333333-3.09333333-5.44-4.58666667-9.17333334-4.58666667-3.41333333 0-7.14666667 1.28-10.98666666 3.94666667-3.73333333 2.77333333-8.74666667 6.82666667-14.82666667 12.37333333z" p-id="3006"></path><path d="M355.41333333 620.69333333c-31.57333333-1.38666667 138.56-46.18666667 154.45333334-42.98666666 0.10666667 0-65.17333333 47.04-154.45333334 42.98666666zM172.26666667 820.48c25.49333333-17.49333333 316.90666667-176.74666667 579.73333333-192.74666667" p-id="3007"></path></svg>