<?xml version="1.0" standalone="no"?><!DOCTYPE svg PUBLIC "-//W3C//DTD SVG 1.1//EN" "http://www.w3.org/Graphics/SVG/1.1/DTD/svg11.dtd"><svg t="1722912346861" class="icon" viewBox="0 0 1024 1024" version="1.1" xmlns="http://www.w3.org/2000/svg" p-id="2845" xmlns:xlink="http://www.w3.org/1999/xlink" width="128" height="128"><path d="M513.13777778 1018.99377778c280.576 0 507.904-227.44177778 507.904-507.904 0-280.576-227.44177778-507.904-507.904-507.904-280.576 0-507.904 227.44177778-507.904 507.904S232.56177778 1018.99377778 513.13777778 1018.99377778zM941.056 588.23111111c-16.27022222 91.136-59.16444445 172.60088889-120.26311111 235.52-58.48177778 60.18844445-133.46133333 103.424-217.31555556 121.62844444 4.20977778-43.46311111 9.32977778-103.76533333 17.29422222-155.30666666 21.95911111-141.76711111 66.21866667-203.43466667 190.12266667-227.44177778 34.816-6.71288889 71.22488889-6.94044445 107.74755556-6.144 17.97688889-0.56888889 28.21688889 7.05422222 22.41422222 31.744z m-840.81777778-223.11822222c21.16266667-65.76355555 57.23022222-125.72444445 105.24444445-175.33155556C284.78577778 107.97511111 399.01866667 67.12888889 513.13777778 67.12888889c114.11911111 0 228.23822222 40.84622222 307.65511111 122.65244444 48.128 49.60711111 84.08177778 109.568 105.24444444 175.33155556 6.03022222 22.41422222-1.93422222 32.99555555-23.77955555 31.85777778-71.56622222-2.84444445-225.96266667-5.12-257.59288889-6.71288889 27.19288889 31.744 43.69066667 73.61422222 43.69066666 119.35288889 0 49.83466667-19.56977778 95.00444445-51.31377777 127.65866666-11.264 11.71911111-24.23466667 21.73155555-38.22933333 29.80977778-53.02044445 30.72-118.32888889 30.72-171.34933334 0-14.10844445-8.192-26.96533333-18.20444445-38.22933333-29.92355556-31.744-32.65422222-51.31377778-77.824-51.31377778-127.65866666 0-45.73866667 16.49777778-87.49511111 43.69066667-119.35288889-31.744 1.59288889-186.02666667 3.86844445-257.59288889 6.71288889-21.84533333 1.25155555-29.696-9.32977778-23.77955556-31.744z m7.50933333 191.37422222c36.52266667-0.79644445 72.93155555-0.68266667 107.74755556 6.144 123.904 24.00711111 168.16355555 85.67466667 190.12266667 227.44177778 7.96444445 51.54133333 12.97066667 111.84355555 17.18044444 155.30666666-83.968-18.20444445-158.94755555-61.44-217.31555555-121.62844444-61.09866667-62.91911111-103.99288889-144.384-120.26311112-235.52-5.80266667-24.68977778 4.43733333-32.31288889 22.528-31.744z" p-id="2846"></path><path d="M414.83377778 610.98666667c9.67111111 10.01244445 20.82133333 18.432 32.99555555 25.14488888 40.73244445 22.18666667 89.88444445 22.18666667 130.61688889 0 12.17422222-6.71288889 23.32444445-15.24622222 32.99555556-25.14488888 25.14488889-25.94133333 40.73244445-61.78133333 40.73244444-101.376s-15.58755555-75.43466667-40.73244444-101.26222222c-50.74488889-52.224-145.86311111-52.224-196.608 0-25.14488889 25.94133333-40.73244445 61.78133333-40.73244445 101.26222222 0 39.59466667 15.58755555 75.43466667 40.73244445 101.376z m76.57244444-156.21688889c13.88088889-5.80266667 29.58222222-5.80266667 43.57688889 0 20.82133333 8.87466667 35.61244445 30.03733333 35.61244444 54.72711111 0 23.32444445-13.08444445 43.46311111-32.08533333 53.13422222-15.92888889 7.96444445-34.58844445 7.96444445-50.51733333 0-19.00088889-9.55733333-32.08533333-29.80977778-32.08533334-53.13422222-0.11377778-24.68977778 14.56355555-45.85244445 35.49866667-54.72711111z" p-id="2847"></path></svg>