<?xml version="1.0" standalone="no"?><!DOCTYPE svg PUBLIC "-//W3C//DTD SVG 1.1//EN" "http://www.w3.org/Graphics/SVG/1.1/DTD/svg11.dtd"><svg t="1722912360576" class="icon" viewBox="0 0 1024 1024" version="1.1" xmlns="http://www.w3.org/2000/svg" p-id="3329" xmlns:xlink="http://www.w3.org/1999/xlink" width="128" height="128"><path d="M978.03377778 76.41442016h-103.56306133c-31.06891852 0-51.78153127 20.71261275-51.78153127 51.78153006v108.74121481c-93.20675555 10.35630577-181.23535762 36.24707201-258.90765391 82.85044979L822.68918518 853.13738312v103.56306133h207.12612387V128.19595022c0-31.06891852-20.71261275-51.78153127-51.78153127-51.78153006z m0 724.94143169h-103.56306133v-414.2522465h103.56306133v414.2522465z m0-517.81530904h-103.56306133V179.97748149h103.56306133v103.56306132zM201.31081482 128.19595022c0-31.06891852-20.71261275-51.78153127-51.78153127-51.78153006H45.96622222c-31.06891852 0-51.78153127 20.71261275-51.78153127 51.78153006v828.50449423h207.12612387v-108.74121481l258.90765391-533.34976831c-77.6722963-41.42522429-165.70089836-72.49414281-258.90765391-77.6722963V128.19595022zM149.52928355 801.35585185H45.96622222v-414.2522465h103.56306133v414.2522465zM149.52928355 283.54054281H45.96622222V179.97748149h103.56306133v103.56306132z" p-id="3330"></path></svg>