<?xml version="1.0" standalone="no"?><!DOCTYPE svg PUBLIC "-//W3C//DTD SVG 1.1//EN" "http://www.w3.org/Graphics/SVG/1.1/DTD/svg11.dtd"><svg t="1722912313904" class="icon" viewBox="0 0 1024 1024" version="1.1" xmlns="http://www.w3.org/2000/svg" p-id="1698" xmlns:xlink="http://www.w3.org/1999/xlink" width="128" height="128"><path d="M373.6556416 337.03464C364.15515307 337.03464 356.4860832 344.72661547 356.4860832 354.20421333L356.4860832 982.99911787C356.4860832 992.47671573 364.15515307 1000.16861333 373.6556416 1000.16861333 383.11034133 1000.16861333 390.8252 992.47671573 390.8252 982.99911787L390.8252 354.20421333C390.8252 344.72661547 383.11034133 337.03464 373.6556416 337.03464L373.6556416 337.03464ZM61.05527253 597.55404907C51.57767467 597.55404907 43.88571413 605.24594667 43.88571413 614.72354453L43.88571413 982.99911787C43.88571413 992.47671573 51.57767467 1000.16861333 61.05527253 1000.16861333 70.53286293 1000.16861333 78.2248224 992.47671573 78.2248224 982.99911787L78.2248224 614.72354453C78.2248224 605.24594667 70.53286293 597.55404907 61.05527253 597.55404907L61.05527253 597.55404907ZM998.8105984 384.28523733C989.33300907 384.28523733 981.6639392 391.97721387 981.6639392 401.45481173L981.6639392 982.99911787C981.6639392 992.47671573 989.33300907 1000.16861333 998.8105984 1000.16861333 1008.28819627 1000.16861333 1016.00304747 992.47671573 1016.00304747 982.99911787L1016.00304747 401.45481173C1016.00304747 391.97721387 1008.28819627 384.28523733 998.8105984 384.28523733L998.8105984 384.28523733ZM993.54527253 189.67343253C1003.0228704 189.5589792 1010.6461504 181.79834667 1010.5545792 172.3207488L1009.27258667 60.85602773C1009.2267968 56.0942912 1007.1664544 51.56154027 1003.64096853 48.33365867 1000.11549013 45.1287136 995.4682624 43.572 990.63789227 43.93829867L879.56231467 53.34716267C870.107616 54.14841813 863.10243413 62.43560107 863.8807904 71.8903392 864.6820384 81.34499947 873.12945707 88.14412587 882.44680427 87.571856L949.9574976 81.84869013 686.43916053 371.94543253 384.873088 76.5146848C378.32576 70.10471787 367.95535147 69.92152853 361.2477728 76.10258773L50.02096853 360.75094827C43.01578987 367.1609152 42.53504213 378.0120384 48.945008 385.0172128 55.35497493 392.02238613 66.20613653 392.48028053 73.18842027 386.09317333L372.44232853 112.41046827 675.15303467 408.9401152C678.35801813 412.09933973 682.684752 413.8391648 687.171728 413.8391648L687.67536427 413.8391648C692.32259307 413.70185173 696.7408896 411.664384 699.87719253 408.23045333L975.4371136 104.90168107 976.1925728 172.7099072C976.30704213 182.11884907 983.9532128 189.67343253 993.38502187 189.67343253L993.54527253 189.67343253 993.54527253 189.67343253ZM686.23312 596.89010667C676.7555296 596.89010667 669.06357013 604.5820832 669.06357013 614.05968107L669.06357013 982.99911787C669.06357013 992.47671573 676.7555296 1000.16861333 686.23312 1000.16861333 695.71071787 1000.16861333 703.4026784 992.47671573 703.4026784 982.99911787L703.4026784 614.05968107C703.4026784 604.5820832 695.71071787 596.89010667 686.23312 596.89010667L686.23312 596.89010667Z" p-id="1699"></path></svg>