<?xml version="1.0" standalone="no"?><!DOCTYPE svg PUBLIC "-//W3C//DTD SVG 1.1//EN" "http://www.w3.org/Graphics/SVG/1.1/DTD/svg11.dtd"><svg t="1722912307593" class="icon" viewBox="0 0 1024 1024" version="1.1" xmlns="http://www.w3.org/2000/svg" p-id="1539" xmlns:xlink="http://www.w3.org/1999/xlink" width="128" height="128"><path d="M170.92835556 911.44533334h208.09955555v-101.5808l-208.09955555 13.8733037zM142.00604444 485.13517038l208.21712594-52.55395555v-100.52266668l-208.21712594 64.54613334zM142.00604444 777.76782222l208.21712594-18.45854814v-96.64284446l-208.21712594 32.09671112z" p-id="1540"></path><path d="M430.17102222 685.35751112c0-111.69185186 60.66631111-209.15768889 150.84278518-261.24136297V235.0629926l-117.4528-65.4866963L21.1437037 315.83383704l-0.23514074 609.83751111h58.19733334V345.344l331.07816297-99.93481482v677.08776297h135.32349629C475.31804444 867.35644445 430.17102222 781.53007408 430.17102222 685.35751112z" p-id="1541"></path><path d="M142.00604444 632.92112593L350.22317038 594.59318518v-96.64284444l-208.21712594 50.08497778zM852.71893334 408.94957038V105.97072593L721.39282962 1.09795556 284.38376296 150.76503704v37.38737779L681.30133334 65.64408889v322.37795556c16.45985186-2.82168889 33.27241482-4.23253334 50.43768888-4.23253333 43.03075556-0.11757038 83.94524444 8.93534814 120.97991112 25.16005926zM739.02838518 1023.13718518c-32.33185186-51.6133926-56.08106666-79.47757038-71.13007407-83.82767406-108.28231111-30.9210074-187.52474073-130.62068148-187.52474073-248.77890371 0-142.848 115.80681482-258.65481482 258.6548148-258.65481481s258.65481482 115.80681482 258.65481482 258.65481481c0 117.33522962-78.06672593 216.32948148-185.05576296 248.07348148-15.51928889 4.70281482-40.0914963 32.80213334-73.59905186 84.53309629z m0-554.22672591c-122.50832593 0-221.73771852 99.2293926-221.73771852 221.73771852 0 122.50832593 99.2293926 221.73771852 221.73771852 221.73771851 122.50832593 0 221.73771852-99.2293926 221.73771852-221.73771851 0-122.50832593-99.2293926-221.73771852-221.73771852-221.73771852z m-37.50494814 383.74968888c-43.03075556-9.99348148-80.30056296-36.56438518-103.5794963-74.06933332-23.3965037-37.38737778-30.9210074-82.65197038-20.92752592-125.56515556 43.03075556 9.99348148 80.30056296 36.56438518 103.57949629 74.06933333 23.3965037 37.38737778 30.9210074 82.5344 20.92752593 125.56515555z m-102.7565037-251.36545185c30.5682963-47.96871111 83.47496296-77.0085926 140.26145184-76.89102222 58.90275556 0 110.75128889 30.68586666 140.26145186 76.89102222-41.14962962 14.46115556-89.11834074 22.80865186-140.26145186 22.80865185s-99.11182222-8.3474963-140.26145184-22.80865185zM776.53333334 852.66014815c-2.82168889-12.34488889-4.23253334-24.92491852-4.23253334-37.62251853 0-78.88971852 55.02293334-145.08183704 128.73955556-162.01197035 9.99348148 43.03075556 2.46897778 88.17777778-20.92752594 125.56515556-23.27893334 37.50494814-60.54874073 64.07585186-103.57949628 74.06933332z m0 0" p-id="1542"></path></svg>