<?xml version="1.0" standalone="no"?><!DOCTYPE svg PUBLIC "-//W3C//DTD SVG 1.1//EN" "http://www.w3.org/Graphics/SVG/1.1/DTD/svg11.dtd"><svg t="1722912295711" class="icon" viewBox="0 0 1088 1024" version="1.1" xmlns="http://www.w3.org/2000/svg" p-id="1378" xmlns:xlink="http://www.w3.org/1999/xlink" width="136" height="128"><path d="M658.95760387 98.28173913c29.184 0 52.55791304 24.10852174 52.55791303 54.29426087 0 30.05217391-23.37391304 54.22747826-52.55791303 54.22747826H410.79342994a53.22573913 53.22573913 0 0 1-52.49113043-54.22747826c0-30.18573913 23.37391304-54.29426087 52.49113043-54.29426087h248.16417393z m0-60.23791304H410.79342994c-61.30643478 0-110.85913043 51.22226087-110.85913042 114.53217391 0 63.24313043 49.55269565 114.4653913 110.85913042 114.4653913h248.16417393c61.30643478 0 110.99269565-51.22226087 110.99269565-114.4653913 0-63.30991304-52.55791304-114.53217391-110.99269565-114.53217391z m8.74852174 430.94817391c29.25078261 0 52.55791304 24.04173913 52.55791304 54.22747826 0 30.11895652-23.37391304 54.22747826-52.55791304 54.22747826H419.60873429a53.22573913 53.22573913 0 0 1-52.55791303-54.22747826c0-30.11895652 23.37391304-54.22747826 52.55791303-54.22747826h248.09739132z m0-60.30469565H419.60873429c-61.30643478 0-110.99269565 51.22226087-110.99269565 114.53217391 0 63.30991304 49.68626087 114.53217391 110.99269565 114.53217391h248.09739132c61.37321739 0 110.99269565-51.22226087 110.99269565-114.53217391 0-63.30991304-49.61947826-114.53217391-110.99269565-114.53217391z m-8.68173914 427.94295652c29.11721739 0 52.49113043 24.10852174 52.49113043 54.22747826 0 30.18573913-23.37391304 54.29426087-52.55791303 54.29426087H410.79342994a53.22573913 53.22573913 0 0 1-52.49113043-54.29426087c0-30.05217391 23.37391304-54.22747826 52.49113043-54.22747826h248.16417393z m0-60.23791304H410.72664735c-61.30643478 0-110.85913043 51.22226087-110.85913044 114.4653913 0 63.30991304 49.55269565 114.53217391 110.85913044 114.53217391h248.16417391c61.30643478 0 110.99269565-51.22226087 110.99269565-114.53217391 0-63.24313043-52.55791304-114.4653913-110.99269565-114.4653913zM293.99064733 514.20382609L188.94160387 453.89913043c-2.93843478-3.00521739-8.74852174 0-8.74852175 6.01043479v24.10852174c-43.8093913-15.02608696-116.80278261-57.23269565-116.80278261-153.66678261 0-135.56869565 143.04834783-159.744 148.9252174-162.74921739a31.25426087 31.25426087 0 0 0 23.37391303-36.12939131c0-18.09808696-14.6253913-30.18573913-29.25078261-27.11373913C136.38369082 113.30782609 5.08908212 176.68452174 5.08908212 327.34608696c0 135.56869565 105.11582609 198.8786087 175.17078262 219.98191304v36.19617391c0 6.01043478 5.81008696 6.01043478 8.74852173 6.01043479l105.11582609-63.30991305c5.81008696-3.00521739 5.81008696-9.01565217 0-12.02086956z m487.51304349 379.72591304l105.11582608-63.30991304c2.93843478-3.00521739 8.74852174 0 8.74852175 6.01043478v24.10852174c43.8093913-15.02608696 116.80278261-57.23269565 116.80278261-153.66678261 0-135.56869565-143.04834783-159.744-148.92521739-162.74921739a31.25426087 31.25426087 0 0 1-23.37391305-36.19617391c2.93843478-18.03130435 17.56382609-30.05217391 32.18921739-27.11373913 70.05495652 12.02086957 201.41634783 72.32556522 201.41634783 226.05913043 0 135.56869565-105.11582609 198.8786087-175.17078261 219.98191304v36.12939131c0 6.01043478-5.81008696 6.01043478-8.74852174 6.01043478l-108.05426087-63.24313043c-2.87165217-3.00521739-2.87165217-9.01565217 0-12.02086957z" p-id="1379"></path></svg>