<?xml version="1.0" standalone="no"?><!DOCTYPE svg PUBLIC "-//W3C//DTD SVG 1.1//EN" "http://www.w3.org/Graphics/SVG/1.1/DTD/svg11.dtd"><svg t="1722912371212" class="icon" viewBox="0 0 1024 1024" version="1.1" xmlns="http://www.w3.org/2000/svg" p-id="3648" xmlns:xlink="http://www.w3.org/1999/xlink" width="128" height="128"><path d="M951.66384427 975.07864853h-21.06059734a39.9684768 39.9684768 0 0 0 13.1072-29.54422293v-472.8560256a40.29721707 40.29721707 0 0 0-40.19117226-40.1911712h-21.20906134l-31.81359146 72.11080853c9.01385067 0.53022613 16.0128416 7.84735253 16.01284053 16.96724907v389.8225504c0 9.438032-7.63526187 17.07329493-17.07329387 17.07329493H297.3642976c-9.3319872 0-16.96724907-7.63526187-16.96724907-16.96724906v-389.92859627c0-9.438032 7.63526187-17.07329493 17.07329494-17.07329387h390.24673066l36.37354027-72.00476373H93.9693984c-22.26951467 0-40.1911712 18.0277024-40.19117227 40.1911712v472.8560256c0 11.64377493 4.97352533 22.22709653 13.1072 29.54422293h-2.1421152a10.6045312 10.6045312 0 1 0 0 21.20906134h886.93113814a10.6045312 10.6045312 0 1 0 0-21.20906134z m-834.6826144-89.14168533h85.36647253c2.22695147 0 3.9236768 1.80277013 3.92367573 3.9236768v28.2080512c0 2.12090667-1.69672533 3.9236768-3.92367573 3.9236768h-85.36647253c-2.12090667 0-3.9236768-1.80277013-3.9236768-3.9236768v-28.2080512c0-2.12090667 1.80277013-3.9236768 3.9236768-3.9236768z m-3.9236768-45.59948267v-28.2080512c0-2.12090667 1.80277013-3.81763093 3.9236768-3.81763093h85.36647253c2.22695147 0 3.9236768 1.69672533 3.92367573 3.81763093v28.2080512c0 2.22695147-1.69672533 3.9236768-3.92367573 3.9236768h-85.36647253a3.9236768 3.9236768 0 0 1-3.9236768-3.9236768z m1.80277013-340.29939093c0-2.12090667 1.80277013-3.81763093 3.9236768-3.81763093h85.36647253c2.22695147 0 3.9236768 1.69672533 3.9236768 3.81763093v28.2080512c0 2.22695147-1.69672533 3.9236768-3.9236768 3.9236768h-85.36647253c-2.12090667 0-3.9236768-1.69672533-3.9236768-3.9236768v-28.2080512z m0 86.74506133c0-2.12090667 1.80277013-3.9236768 3.9236768-3.9236768h85.36647253c2.22695147 0 3.9236768 1.80277013 3.9236768 3.9236768v28.2080512c0 2.12090667-1.69672533 3.9236768-3.9236768 3.9236768h-85.36647253c-2.12090667 0-3.9236768-1.80277013-3.9236768-3.9236768v-28.2080512z m45.70552747 74.44380587a47.83703787 47.83703787 0 0 1 0 95.6528672 47.83703787 47.83703787 0 0 1 0-95.6528672zM20.44818667 975.07864853H3.3324736a10.6045312 10.6045312 0 1 0 0 21.20906134h17.11571307a10.6045312 10.6045312 0 1 0 0-21.20906134zM1020.6675264 975.07864853h-27.3596896a10.6045312 10.6045312 0 1 0 0 21.20906134h27.3596896a10.6045312 10.6045312 0 1 0 0-21.20906134z" p-id="3649"></path><path d="M406.61217387 757.57972267c51.75010987-7.26410347 61.9940864 6.83992213 74.9634272 24.7191616 10.40304427 14.3585344 23.35117653 32.21656427 57.69925226 36.09782293 19.10936427 2.15272 39.25797333-0.487808 58.29310507-7.5928448 25.73719573-9.63951893 58.80212267-29.28971413 71.601792-67.94322773l0.05302293-0.07423254 18.2716064-38.64290986c0.6468768-0.31813547 1.31496213-0.57264427 1.94062827-1.01803414l73.06521707-51.59104213-101.16722347-47.81582933 6.52178667 89.2159168c0.05302293 0.7529216 0.28632213 1.43161173 0.45599466 2.1421152l-18.2610016 38.63230613c-0.1060448 0.2332992-0.09544107 0.487808-0.18027733 0.731712-0.09544107 0.2332992-0.27571733 0.392368-0.3499488 0.636272-9.86221333 31.495456-37.74152533 47.7628064-59.3853728 55.86466773-15.90679573 5.94914133-32.6513504 8.16548907-48.48391467 6.37332267-25.03729707-2.83141013-32.92706773-13.70105387-42.90593066-27.4657344-14.379744-19.83047253-30.64709333-42.32268267-95.10143254-33.2664128-36.39474987 5.11138347-61.34721067 19.6714048-74.14687893 43.25588053-21.96198293 40.47749333 1.3785888 91.5171008 2.396624 93.6804256a10.6045312 10.6045312 0 0 0 19.22601493-8.950224c-0.21209067-0.43478613-19.84107733-43.66945813-2.937456-74.68771093 9.438032-17.30659413 29.08822827-28.17623787 58.43096534-32.30140053zM771.06868587 632.06449707l230.96667946-523.651728c1.3785888-3.07531413 0.1060448-6.6808544-2.96926826-8.16548907l-6.99898987-3.2874048 14.8463424-31.28336533c6.25667307-13.3617088 0.636272-29.16245973-12.7254368-35.4191328a26.51132693 26.51132693 0 0 0-35.31308693 12.619392l-14.84634347 31.3894112-6.89294507-3.2874048a6.161232 6.161232 0 0 0-8.165488 2.86322346l-258.0082336 510.9262912 100.10677014 47.29620694z m34.676816-227.78532054c2.54508693-5.3022656 8.80176-7.63526187 14.1040256-5.09017493s7.63526187 8.80176 5.09017493 14.10402667l-64.05136533 135.52590293c-1.80277013 3.81763093-5.62040107 6.0445824-9.54407787 6.0445824-1.59067947 0-3.07531413-0.31813547-4.5599488-1.06045333-5.3022656-2.43904213-7.52921707-8.80176-5.09017493-14.1040256l64.0513664-135.41985814z" p-id="3650"></path></svg>